{
	"asset":{
		"generator":"Created using the official Cinema 4D glTF Exporter 1.000x284978",
		"version":"2.0"
	},
	"nodes":[{
		"name":"MagicPass_card",
		"mesh":0
	}],
	"scenes":[{
		"nodes":[0]
	}],
	"meshes":[{
		"name":"MagicPass_card",
		"primitives":[{
			"attributes":{
				"POSITION":1,
				"NORMAL":2,
				"TEXCOORD_0":3
			},
			"indices":0,
			"material":0
		}]
	}],
	"accessors":[{
		"bufferView":0,
		"type":"SCALAR",
		"componentType":5123,
		"count":3444,
		"byteOffset":0,
		"min":[0],
		"max":[879]
	},
	{
		"bufferView":1,
		"type":"VEC3",
		"componentType":5126,
		"count":880,
		"byteOffset":0,
		"min":[-4.28000020980835,
		-2.674999952316284,
		-0.08876853436231613],
		"max":[4.28000020980835,
		2.674999952316284,
		0.01123146340250969]
	},
	{
		"bufferView":1,
		"type":"VEC3",
		"componentType":5126,
		"count":880,
		"byteOffset":12,
		"min":[-1.0,
		-1.0,
		-1.0],
		"max":[1.0,
		1.0,
		1.0]
	},
	{
		"bufferView":1,
		"type":"VEC2",
		"componentType":5126,
		"count":880,
		"byteOffset":24,
		"min":[0.19136187434196473,
		0.19136184453964234],
		"max":[0.8086380958557129,
		0.8086380958557129]
	}],
	"bufferViews":[{
		"buffer":0,
		"byteOffset":0,
		"byteLength":6888,
		"target":34963
	},
	{
		"buffer":0,
		"byteOffset":6888,
		"byteLength":28160,
		"target":34962,
		"byteStride":32
	}],
	"buffers":[{
		"uri":"data:application/octet-stream;base64,",
		"byteLength":35048
	}],
	"images":[{
		"uri":"data:image/jpeg;base64,"
	}],
	"samplers":[{
		"magFilter":9729,
		"minFilter":9729,
		"wrapS":10497,
		"wrapT":10497
	}],
	"textures":[{
		"sampler":0,
		"source":0
	}],
	"materials":[{
		"pbrMetallicRoughness":{
			"baseColorTexture":{
				"index":0
			},
			"baseColorFactor":[0.8,
			0.8,
			0.8,
			1.0],
			"metallicFactor":0.0,
			"roughnessFactor":0.5
		},
		"emissiveFactor":[0.0,
		0.0,
		0.0],
		"alphaMode":"OPAQUE",
		"doubleSided":false,
		"name":"Mat"
	}]
}